<svg width="76" height="75" viewBox="0 0 76 75" fill="none" xmlns="http://www.w3.org/2000/svg">
<path d="M37.5663 74.9534C16.9496 74.9534 0.0507812 58.1099 0.0507812 37.3925C0.0507812 16.675 16.9496 0 37.5663 0C58.1829 0 75.0817 16.8435 75.0817 37.3925C75.2507 58.1099 58.3519 74.9534 37.5663 74.9534ZM37.5663 3.36869C18.8085 3.36869 3.43055 18.6962 3.43055 37.3925C3.43055 56.0887 18.8085 71.4163 37.5663 71.4163C56.324 71.4163 71.702 56.0887 71.702 37.3925C71.871 18.6962 56.493 3.36869 37.5663 3.36869ZM52.2683 30.1498L49.9024 27.7917L33.8485 43.6246L25.3991 35.2028L23.0332 37.5609L33.8485 48.3407L52.2683 30.1498Z" fill="#6EBA7D"/>
</svg>
