<svg width="19" height="19" fill="none" xmlns="http://www.w3.org/2000/svg"><path d="M9.375 18.6C4.205 18.6 0 14.428 0 9.3 0 4.172 4.206 0 9.375 0c5.17 0 9.375 4.172 9.375 9.3 0 5.128-4.206 9.3-9.375 9.3zm0-17.825C4.636.775.781 4.599.781 9.3c0 4.7 3.855 8.525 8.594 8.525 4.739 0 8.594-3.824 8.594-8.525 0-4.7-3.855-8.525-8.594-8.525z" fill="#FF3737"/><path d="M13.281 8.913H9.766V5.425a.39.39 0 0 0-.391-.387.39.39 0 0 0-.39.387v3.488H5.468a.39.39 0 0 0-.39.387.39.39 0 0 0 .39.388h3.515v3.487c0 .214.175.387.391.387.216 0 .39-.173.39-.387V9.688h3.516c.216 0 .39-.174.39-.388a.389.389 0 0 0-.39-.387z" fill="#FF3737"/></svg>