<svg width="76" height="75" fill="none" xmlns="http://www.w3.org/2000/svg"><path d="M37.566 74.953C16.95 74.953.051 58.11.051 37.393.05 16.674 16.95 0 37.566 0c20.617 0 37.516 16.843 37.516 37.392.169 20.718-16.73 37.561-37.516 37.561zm0-71.584c-18.758 0-34.135 15.327-34.135 34.023 0 18.697 15.377 34.024 34.135 34.024 18.758 0 34.136-15.327 34.136-34.023.169-18.697-15.209-34.024-34.136-34.024zm14.702 26.78l-2.366-2.357L33.85 43.625l-8.45-8.422-2.366 2.358L33.85 48.34l18.42-18.191z" fill="#6EBA7D"/></svg>