<svg width="14" height="18" fill="none" xmlns="http://www.w3.org/2000/svg"><path d="M10.965 7.367V4.91c0-2.257-1.774-4.094-3.954-4.094S3.056 2.652 3.056 4.91v2.457c-1.09 0-1.978.918-1.978 2.048v5.322c0 1.129.887 2.048 1.978 2.048h7.91c1.09 0 1.978-.919 1.978-2.048V9.415c-.001-1.13-.888-2.048-1.979-2.048zM3.847 4.91c0-1.806 1.419-3.275 3.164-3.275 1.744 0 3.164 1.47 3.164 3.275v2.457H3.847V4.91zm8.305 9.827c0 .678-.532 1.228-1.187 1.228H3.056c-.654 0-1.186-.55-1.186-1.228V9.415c0-.678.532-1.229 1.186-1.229h7.91c.655 0 1.187.55 1.187 1.229v5.322h-.001z" fill="#D7FF36" stroke="#D7FF36" stroke-width=".6"/></svg>