<svg version="1.0" xmlns="http://www.w3.org/2000/svg" width="3940" height="3940" viewBox="0 0 2955 2955"><path d="M1470.4 40c-15.6 2.2-28.3 27.1-36.5 71.5-1 5.1-1.5 7.9-1.8 9.3-.1.2-1.3-.6-2.8-1.8-13.8-10.6-26.5-17.1-34.4-17.8-7-.5-11 1.4-13.4 6.4-1.8 3.9-3.3 12.7-2.9 17.2.1 1.5.5 5.4.8 8.7 1 11.1 4.9 30.3 8.8 42.2 2 6.4 1.8 8.3-.9 8.3-3.2 0-14.4 6.4-17.8 10.1-6.3 7-7 17.9-1.8 30.8l2.6 6.4-5.4 4.6c-20.6 17.8-27.8 31.4-23.3 44.4 1.7 4.8 4 7.6 10.7 13 4.9 4 19.4 11.2 28.4 14.1l5.1 1.7-1.8 4.2c-3.1 7-7 21.7-7 26.3 0 15.1 12.2 14.9 37.8-.8 6.1-3.7 30-20.4 31.2-21.7 1.1-1.3 8.9-7.1 9.5-7.1.6 0 .4 2.4-1.1 13-.6 4-3.9 23.3-5.8 33.2-6.9 36.2-18 66.5-28.8 78.3-5.7 6.3-10.5 8.8-17.3 9-21 .8-37.9-16.7-51.5-53.5-1.8-4.7-3.4-9.4-3.6-10.5-.2-1.1-1.3-4.9-2.4-8.5-2.1-6.9-2.2-6.6 3.1-9.5 1.5-.8 4.5-3.5 6.7-6 22.9-26 3.8-66.6-30.5-65-11 .5-19.9 4.6-27.3 12.4-3.9 4.2-8.6 13.1-9.6 18.2-1 5.3-.7 15.6.6 17.8.6 1.2.8 2.1.5 2.1-.4 0 .8 2.7 2.6 6.1 3.9 7.2 10.4 13.9 15.9 16.4l4.1 1.8-.6 6.6c-.6 7.3-1.4 14.2-2 18.1-.2 1.4-.7 4.5-1 7-2.8 20.7-9.4 40.4-15.8 47.4-2.9 3.1-8.4 5.5-11.2 4.9-1.1-.2-4.4-.6-7.3-.8-14.3-1.3-21.1-9.8-27.7-35-2.3-9-3.1-13.5-4.9-27-.3-2.2-.8-5.8-1-8-.3-2.2-.8-6.9-1-10.5-.3-3.6-.8-10.4-1.1-15.2l-.7-8.6 3.4.7c4.9 1.1 13.8.4 19.4-1.5 9.3-3.1 18.1-11 22.4-20 3-6.1 3.4-8 3.4-17.9 0-8.1-.3-9.7-3.1-15.5-6.9-14.3-21.4-23.2-36.6-22.5l-4.3.2 2.5-6.1c2.1-5.1 2.6-7.6 2.5-15.1 0-7.9-.4-9.8-3-15.5-16.1-34.5-65.3-29.3-73.7 7.7-2.2 9.3-.8 18.7 3.9 27.2 1.3 2.4 2.3 4.5 2.2 4.7-.2.1-2.3.5-4.8.9-14.3 1.9-28 15-31.5 30-2 8.7.3 24.4 4.1 27.6.8.6 1.4 1.7 1.4 2.3 0 2.4 9.6 10.8 16 13.9 5.7 2.8 7.5 3.2 16 3.4l9.5.2-.1 6.3c-.2 8.7-1.4 34.5-1.9 38.8-.2 1.9-.6 7.1-1 11.5-.3 4.4-.8 8.7-1 9.5-.2.8-.6 3.7-1 6.5-1.6 13.5-5.3 27.5-9.2 34.5-3.6 6.4-11.2 9.5-14.7 6-.4-.4-2-.5-3.5-.1-12.3 3.5-21.8-9.4-25.5-34.4-.4-2.3-.8-5.1-1.1-6.3-.2-1.2-.7-5.9-1-10.5-.4-4.5-.8-9.2-1-10.4-.3-1.6.5-2.8 3-4.3 1.8-1.1 5.1-4 7.3-6.4 14.1-15.3 13.7-38.6-.8-53.7-18.7-19.5-51.7-13.9-63.2 10.8-7.7 16.3-2.6 36.8 11.6 47.3l4.7 3.5-.6 15c-.7 18.3-1.1 23-3 35.4-7 46.2-24.3 58.5-54.3 38.6-4-2.6-6-6.2-10.2-18-2.1-5.7-6.7-23.9-7.4-29.4-.3-1.4-.9-4.8-1.4-7.4-1.1-5.6-1.5-5.3 10.1-8.1 18.3-4.5 28.8-14.1 31.6-29 1.9-10.5-.1-27.9-5.1-43.4l-2-6.3 10.3-10.3c5.7-5.6 12.1-12.8 14.3-15.9 18.6-27.4 7.4-47.8-34.2-62.3l-8.2-2.9.5-3.4c.7-4.3.7-21.4 0-26.6-1.3-10.1-6.7-19.1-12.8-21.4-3.6-1.4-11.2-1.4-15.7 0-1.9.5-4.2 1.2-5 1.4-.8.2-2.2.6-3 .9-1.1.5-2.5-1.5-5.5-7.6-17.5-36.3-35.4-50.6-53.3-42.3-6.2 2.9-16.5 12.9-21.3 20.7-.5.8-4.3-.4-11.8-3.6-35.4-15.1-54.6-17.6-59.4-7.8-3.9 7.9 4.9 28.5 17.6 41.5 29 29.7 45.9 60.6 57.1 105 2.2 8.7 2.3 10 1.1 14.6-1.7 6.6-1.7 18.9.1 24.9 3.1 10.1 10.4 21 19 28.2 8.6 7.2 22.2 31.8 34.5 62 5.8 14.3 13.9 38.4 13 38.8-1.2.4-30.1-9.3-42.1-14.2-17-7-40.2-18.6-56.6-28.2-15.7-9.2-34.7-21.4-35.2-22.6-.2-.5-.8-.8-1.3-.8-.6 0-2.7-1.3-4.7-2.8-16.3-12.6-26.2-19.1-38.2-25.1-3.6-1.8-7.6-3.9-9-4.6-4.3-2.2-21.2-7.3-29.5-9-4.8-1-13-1.7-20.5-1.7-27.8-.1-52.1 9.1-78.5 29.6-7 5.5-12.8 9.6-18.4 13.1-.9.5-7 4.3-13.6 8.4-6.6 4.1-13.1 8.1-14.5 9-1.4.8-3.8 2.3-5.5 3.2-1.6.9-8.2 4.5-14.5 8.1-17 9.6-24.8 13.8-50.2 26.6-25.7 12.9-31.9 17.5-36.2 26.7-5.8 12.2-5.5 24.6 1.2 45 1.4 4.4 2.7 8.2 2.7 8.5.1.3.9 2.3 1.8 4.4 5.2 11.9 7.3 16.4 9 19.6l1.9 3.4-3.8 3.3c-6.3 5.3-39.2 27.3-40.8 27.3-.2 0-4.3 2.3-9.2 5.1-7.4 4.3-39.8 21-41.4 21.4-2.3.6-27.3 12.8-33 16.1-15.2 8.9-32.8 23.8-46.8 39.7-5.9 6.8-17.7 25.1-22.9 35.8-7.5 15.2-14.1 36-15.8 49.4-.4 2.7-1 7.7-1.5 11-.8 6.5-.5 32.2.5 39.5 4.7 34.6 17.9 68.3 38.6 98.5 4.8 7 35.1 57.4 37.9 63 .8 1.6 1.8 3.2 2.1 3.5.3.3 1.2 1.8 2.1 3.5.8 1.6 2.5 4.8 3.8 7 1.2 2.2 3.6 6.5 5.3 9.5 3.8 7 22.7 44.7 22.7 45.4 0 .3 1.4 3.5 3 7.1 1.7 3.6 3 7 3 7.5 0 .6.4 1.8 1 2.8 1.7 3 6.8 17.4 9.9 27.8 5.5 18.9 8.3 35.2 8.5 49.9l.1 8-5.5-.1c-5.4-.1-26.1-.9-46.9-2l-10.3-.5-7.6 5.7c-11.2 8.4-11.8 9-23.2 20.4-21.5 21.5-36.5 46-45.9 75.1-3 9.2-6.4 22.8-7.6 29.9-.3 1.9-1 6-1.5 9-3.2 18.9-3.4 64.5-.5 89.5 1.7 14.9 2.2 18.2 3 22.5.3 1.4.7 4.5 1 7 .3 2.5.7 5.6 1 7 .3 1.4.8 4.1 1.1 6 3.3 19.1 12.3 58.8 20.3 89.5 3.6 13.8 9.8 39.2 10.7 44 .2 1.1 1.5 7.6 3 14.5 1.4 6.9 2.8 13.6 3 15 .3 1.4.9 4.7 1.4 7.5.5 2.7 1.2 6.6 1.5 8.5.4 1.9 1.7 10 3.1 18 1.4 8 2.7 16.3 2.9 18.5.3 2.2.7 5.1 1 6.5.3 1.4.7 4.5 1 6.9.3 2.3.7 5.5.9 7 .3 1.4.8 5.5 1.1 9.1.4 3.6.9 7.3 1 8.2.2.9.6 4.5 1 8 .3 3.5.8 8.2 1 10.5.3 2.4.7 6.2 1 8.5 1.1 10.2 2 22.2 3 37.8.3 4.1.7 10.4 1 14 2.5 35.6 2.5 111.6 0 159-.7 12.8-1.6 27.3-2 31-.2 1.9-.6 8-.9 13.5-.6 9.4-.8 11.8-2.1 22.7-.3 2.4-.7 7.4-1 11.3-.3 3.8-.8 8.1-1 9.5-.2 1.4-.7 6.1-1 10.5-.4 4.4-.8 8.7-1.1 9.5-.2.8-.6 4.2-.9 7.5-.3 3.3-.8 7.1-1 8.5-.2 1.4-.7 5-1 8-.6 5.6-.8 7.1-2 15-1.1 7.6-1.4 9.3-2 14-1.1 8.3-3.6 24.4-6.5 41.5-1.6 9.3-3.1 19-3.4 21.5-.3 2.5-1 7-1.6 10-.5 3-1.2 7.5-1.5 10-.4 2.5-1.2 8.5-2 13.5-.8 4.9-1.6 11.2-2 14-.3 2.7-.8 7-1.1 9.5-.3 2.5-.7 5.6-.9 7-.2 1.4-.7 5.2-1.1 8.5-.3 3.3-.8 6.8-1 7.8-.1.9-.6 5.4-.9 10-.4 4.5-.8 8.9-1 9.7-.2.8-.7 5.5-1.1 10.5-.3 4.9-.8 9.8-.9 10.7-2.6 13.6-2.6 95 0 107.2.2 1.2.6 3.9.9 6.1.4 3.5 2.7 15.3 4 21 1.3 5.8 5.9 18.8 8.7 24.5 7 14.5 15.8 23.9 28.3 30.2 6.1 3.1 6.1 3.1 14.1 2 4.4-.7 9.1-1.4 10.5-1.7 1.4-.3 3.7-.7 5.2-1 1.5-.2 5.1-.8 8-1.4 2.9-.6 6.9-1.3 8.8-1.5 1.9-.3 6-1 9-1.6 3-.6 7.1-1.3 9-1.6 1.9-.3 4-.7 4.6-.9.7-.2 2.6 3.3 4.4 8.3 21.6 57.8 37.8 91.1 60.4 124 3.9 5.8 7.8 11.6 8.7 12.9 6.2 9.3 22.7 28.4 35.8 41.3 18.2 18 26.5 25.1 47.1 40.1l11.6 8.4-1.2 4c-3.7 12.3.4 28.3 10.9 42.5 14.2 19.3 34.7 31.9 94.2 58 6.6 2.9 14 6.1 16.5 7.2 10.6 4.7 51.9 21.1 69 27.3 10.2 3.7 19.4 7.1 20.5 7.6 9.7 4.1 83.9 27.6 104 32.9 1.7.5 5.7 1.6 9 2.5 44.9 12.4 119.5 29.4 154.4 35.1 1.8.3 4.3.8 5.5 1 1.1.2 3.7.6 5.6 1 1.9.3 5.5.9 8 1.4 2.5.5 5.9 1.1 7.5 1.4 1.7.2 7.7 1.2 13.5 2.1 5.8 1 11.4 1.9 12.5 2 1.1.1 3.6.5 5.5.8 2.8.6 20.8 3.1 44.5 6.2 6.2.9 19.2 2.5 24 3 2.8.3 6.8.7 9 1 13 1.5 23.7 2.6 29 3 3.3.3 7.6.7 9.5 1 1.9.2 6.9.7 11 1 4.1.3 9.5.8 12 1 2.5.3 8.3.7 13 1 4.7.3 10.5.7 13 1 2.5.3 8.6.7 13.5 1 5 .3 13.1.7 18 1 15.9 1 44.4 2.2 73 3 21.6.7 106.8.7 128.5 0 24.7-.7 45.3-1.4 54-1.9 4.1-.3 13.4-.8 20.5-1.1 7.2-.4 15-.8 17.5-1 2.5-.2 9-.6 14.5-1s11.6-.8 13.5-1c1.9-.2 7.3-.6 12-.9 4.7-.4 10.1-.9 12-1.1 1.9-.2 6.7-.7 10.5-1 3.9-.3 8.6-.7 10.5-1 1.9-.2 6.4-.7 10-1 3.6-.3 9.9-1 14-1.5s10.3-1.2 13.7-1.6c6.8-.7 8.8-.9 14.8-1.8 2.2-.3 6.5-.8 9.5-1.1 3-.3 6.6-.7 8-1 3.1-.5 8.1-1.2 14.5-2 2.8-.3 6.1-.8 7.5-1 1.4-.3 3.9-.7 5.5-.9 1.7-.3 7.3-1.2 12.5-2s11.8-1.8 14.5-2.2c2.8-.3 5.9-.8 7-1 1.1-.2 3.4-.6 5-.9 1.7-.3 4.4-.7 6-1 13.2-2.4 20.4-3.7 23-4.1 1.7-.3 7.7-1.4 13.5-2.6 13.6-2.6 13.3-2.5 22-4.3 4.1-.8 8.4-1.7 9.5-1.9 1.1-.3 6.4-1.4 11.9-2.6 5.4-1.2 10.6-2.3 11.5-2.5 5.2-1 38.8-8.9 45.1-10.7 8-2.1 10-2.6 14-3.4 1.4-.3 3.9-.9 5.5-1.5 1.7-.5 8-2.2 14-3.8 17.5-4.6 42.6-11.9 64-18.5.6-.2 1.5-.5 2-.6 3.6-1 54-18.2 67.5-23.2 16.6-6 61.1-23.4 68.5-26.8 2.2-1 8.9-3.9 15-6.5 12-5.1 16.3-7 27.5-12.2 4.1-1.9 10.9-5.1 15-7 15.1-7 23.7-11.7 33-17.9 12.5-8.4 17-12.5 28.4-26.5 2.1-2.5 8.5-15.9 9.2-19.3 1.4-6.1 1.4-16.4.2-20.6l-1.4-4.5 5.6-3.9c20.2-14.2 35.8-27.3 52.5-44.1 8.3-8.3 15.9-16.2 17-17.5 33.2-40.7 52.1-72 72.2-120 7.1-16.9 8.1-19.4 15.3-38.6l4.2-11.1 4.6.9c2.6.5 6.1 1.1 7.7 1.4 1.7.3 9.3 1.6 17 2.9 7.7 1.4 15.4 2.7 17 3 1.7.3 4.1.7 5.5 1 9 1.8 12.6 1.7 17.5-.6 11.2-5.1 22-16 28.2-28.3 2.6-5.1 7.2-16.8 7.8-19.6.2-.8 1-4 1.9-7 .8-3 1.7-6.7 2-8.3.3-1.5 1-5.3 1.5-8.5 1.1-5.9 1.5-9.5 2.8-22.2 1-10.1 1-64.7-.1-79-.4-6.3-.9-13.3-1.1-15.5-.8-11.8-1.7-22.2-2-23.5-.2-.8-.7-5.1-1.1-9.5-.3-4.4-.8-8.8-.9-9.7-.2-.9-.7-4.8-1-8.5-.4-3.7-.9-7.6-1.1-8.7-.2-1-.6-4.4-1-7.5-.3-3.1-.8-6.3-.9-7.1-.2-.9-.6-4.3-1-7.5-.4-3.3-.9-6.7-1.1-7.7-.1-.9-.5-3.8-.9-6.5-.7-5.3-4-26.4-5.5-35.8-.6-3.3-1.2-7.4-1.5-9-.3-1.7-1.6-9.8-2.9-18-1.4-8.3-2.7-16.6-3-18.5-.8-5.8-1.8-13.4-2.1-15-.6-3.3-1.5-9.8-2-14.5-.3-2.8-.8-6.1-1-7.5-.2-1.4-.7-4.8-1-7.5-.3-2.8-1-8.6-1.5-13s-1.2-10.7-1.5-14c-.3-3.3-.8-7.6-1-9.5-.8-6.5-1.4-12.5-2-19-.3-3.6-.7-8.8-1-11.5-.2-2.8-.7-8.4-1-12.5-.3-4.1-.8-9.5-1-12-.3-3.9-1-14.2-2-32.5-2.5-45.6-2.5-110.4 0-157.5.7-13.2 1.7-28.7 2-31 .2-1.4.6-6.3 1-11 .3-4.7.8-10.1 1-12 .3-1.9.7-6 1-9 .3-3 .8-7.5 1-10 1.9-16.7 3.1-25.6 5.6-43 1.1-7.4 2.2-15.1 2.5-17 .3-1.9.7-4.2.9-5 .2-.8.7-3.8 1.1-6.5.3-2.8.8-5.3 1-5.6.1-.3.6-2.6.9-5 .3-2.5 2.6-14.2 5.1-26 2.4-11.8 4.6-22.5 4.8-23.9.2-1.4 1.4-6.3 2.6-11 1.2-4.7 2.4-9.4 2.6-10.5.2-1.2 3.7-15.3 7.8-31.5 8.3-32.9 15.8-66.8 18-81.5.2-1.1.6-3.8.9-6 .4-2.2.9-5.7 1.2-7.8.3-2 .7-5.3 1-7.2 1.1-7.6 1.4-10.3 2-17 .4-3.9 1-10.4 1.5-14.5.8-8.2.5-56.1-.5-62.5-.3-2.2-1-7.2-1.5-11-1.2-8.3-1.6-10.6-3.6-19.4-.9-3.6-1.8-7.6-2-8.8-.2-1.2-2-7.1-4-13-5.9-17.9-14.1-33.4-28.9-55.1-6.7-9.8-30.6-32.6-43.1-41.3-4.1-2.8-4.5-2.8-14-2.4-28.4 1.2-44.4 1.8-48.4 1.9l-4.5.1.1-6.5c.1-13.6 1.6-24.7 5.5-40.5 2-8.2 8.2-27.7 10.4-33 .7-1.7 2.3-5.5 3.5-8.5 1.2-3 3.3-7.9 4.6-10.8 1.3-2.9 2.4-5.5 2.4-5.7 0-.8 16-32.8 21.5-43 6.4-11.9 27.3-48.3 29.6-51.7 1.1-1.4 1.9-3.1 1.9-3.7 0-.6.5-1.1 1-1.1.6 0 1-.4 1-.9 0-1.2 9.1-16.3 18.5-30.6 19.4-29.4 29.8-54.1 35.9-84.5 2.3-11.8 2.8-16.5 3-31.8.8-48.4-16.9-93.2-49.9-126.6-19.4-19.7-34.7-30-64-43.1-9-4-35.8-17.6-46.6-23.5-18.9-10.5-44.6-27.2-52.2-34l-2.8-2.6 4-8c3.5-7.3 5.9-12.8 9.7-22.4 8-20.6 8.9-38.4 2.4-51.3-4.4-8.8-10-12.9-36.3-26.1-13.3-6.8-27.3-14-31.2-16.1-39.2-21.3-69.1-39.6-85-52-52-40.7-105.4-40-163.9 2-42.8 30.7-75.9 49.5-113.1 64.3-16.8 6.6-45.3 15.7-46.3 14.8-.5-.6 7.4-24.2 12.3-36.6 12-30.5 26.6-57 36.5-66.3 7.8-7.4 13.5-15.1 16.7-22.8 2.8-6.6 3-9.8 2.1-35.4-.3-5.8.1-7.8 4.2-21.1 1.7-5.4 3.2-10.6 3.4-11.4 2-7.2 14-33.5 18.8-41 1.2-1.9 2.8-4.6 3.5-5.8 3.2-5.9 18.9-25.5 26.8-33.6 9.1-9.2 14.5-17.8 18-28.4 3.4-10.6 2-16.9-4.5-19.4-8.2-3.2-28.4 1.7-56 13.7l-8.5 3.6-2.3-2.8c-8.5-10.3-13-14.6-18-17.5-4.8-2.8-6.7-3.3-12.2-3.3-8.5 0-12.7 2.1-21 10.4-7.8 7.8-13.8 16.6-21 31.1-2.9 5.8-5.4 10.6-5.5 10.7 0 .1-3-.7-6.5-1.8-13-4.1-21.6-1.9-26.6 6.7-4.2 7.1-5.4 14.1-5.1 30.1l.2 14.3-6.5 2.1c-14.9 4.8-27.7 11.8-35.4 19.3-12 11.6-11.3 28.3 1.9 45.6 4.4 5.8 15.5 17.3 20.1 20.9l2.6 2.1-3.1 11.2c-3.5 12.8-4.6 20.1-4.4 30.6.3 21.2 10.2 32.6 33.2 38.1 8.5 2.1 10.4 2.8 9.7 3.9-.2.4-.7 2.8-1.1 5.2-1.5 10.3-4.6 23.4-8.5 35.3-4.7 14.5-6.7 17.1-17.2 22.4-15.1 7.7-25.7 6.5-33.6-3.5-5.5-6.9-9.8-17.9-12.1-30.9-.6-3.2-1.3-6.7-1.5-7.8-.2-1.1-.7-4.9-1-8.5-.4-3.6-.9-8.1-1.1-10-.3-1.9-.7-10.1-1-18.2l-.4-14.8 2.7-1.4c3-1.6 7.7-6.4 11.1-11.3 6.8-9.9 7.9-26.7 2.5-37.8-3.9-8.1-10.8-14.8-19.1-18.8-6.2-2.9-7.7-3.2-16.3-3.2-8.6 0-10.1.3-16.2 3.2-8.5 4-15.1 10.6-19.1 19.1-2.9 6.1-3.2 7.6-3.2 16.3 0 8.1.4 10.4 2.5 15 1.4 3 2.8 5.5 3.3 5.7.4.2.7.9.7 1.6 0 1.4 7 8.1 11.2 10.8 2.8 1.9 2.7.7 1.3 16.3-2.2 23.5-7.3 40.2-14.3 46.2-3.5 3-8.5 4.4-12 3.3-1.9-.5-4-.3-6 .6-4.1 1.7-3.7 1.7-7.2-.1-1.7-.9-4.1-3.2-5.5-5.3-2.2-3.3-5.9-13.2-6.9-18.6-.2-1.2-.9-4.1-1.5-6.6-1-4.8-1.7-9.7-3.6-27.5-1.1-10.9-2.5-34.4-2.8-48.5-.1-5.9.1-7.4 1.2-7.2 3.4.7 13.2.3 17.2-.8 18.6-5 30.9-22.2 29.3-41.1-1.3-15.8-12.6-29.7-28-34.4-2.7-.8-5.9-1.5-7.1-1.5-2.9 0-2.8-.2.2-5.3 2.7-4.7 5.2-14.4 5-19.7-.7-20.5-16.7-37-37-38.2-28.6-1.6-49.2 27.9-38.1 54.4.9 2.1 1.6 4.1 1.6 4.4 0 .3-2.9.7-6.5.9-18.1.9-32.7 13.4-36.6 31.4-3.2 15.2 4.4 32.6 18.1 41 2.7 1.7 5 2.8 5 2.6 0-.3 1.4.2 3.1 1.1 2.3 1.1 6 1.6 12.6 1.7h9.4l-.6 9.6c-.3 5.3-.8 11.4-1 13.6-3 27.4-2.9 26.8-4.6 35.5-2.2 10.9-5.1 20.6-8.5 27.5-3.8 7.9-5.4 10-10.4 13.5-3.8 2.7-5.1 3.1-9.5 3.1-1.6.1-4.9.7-7.3 1.6-3.6 1.2-4.5 1.3-5.9.1-1.4-1-1.5-1-.9 0 1.3 2.1-3.4-.8-5.7-3.6-1-1.2-2.4-1.9-3-1.5-.7.3-.9.3-.5-.1.4-.5-.9-3.7-2.8-7.3-1.9-3.6-3.2-6.9-2.8-7.4.3-.5.1-.9-.4-.9-1.7 0-6.4-21.1-7.6-34.5-2.6-26.6-2.6-28.7-.1-30 24.2-12.8 29.3-43.6 10.2-62.8-8.9-9-22.3-13.1-35-10.6-15.3 2.9-27.9 15.7-30.8 31.3-2.9 15.8 4.4 32.2 17.8 40.1 3.8 2.2 3.9 1.3-2.2 20.1-9.9 30.4-21.7 48.8-36.2 56.6-8.8 4.8-19.9 5.6-27 2-13.4-6.9-25.6-33.3-34.7-75.2-2.4-10.8-5.9-29.6-7.1-38.5-.4-2.2-.8-5.1-1.1-6.5-.2-1.4-.6-4.8-1-7.5-.5-4.9-.5-5 1.3-2.9 1 1.1 2.3 2.3 2.8 2.5.6.2 5.3 3.6 10.5 7.5 28.3 21.2 48.4 31.7 57.4 30 5.3-1 7-4.4 6.3-13-.6-6.7-4.3-20-7.3-25.7l-1.3-2.7 9.1-3.3c10.8-3.9 21.9-9.7 26.9-14.2 16.7-15 11.9-32.7-15.3-56.2l-4.7-4 2.5-7c4.8-13.7 4.1-23.5-2.2-30.4-3.3-3.7-10.5-7.9-16.9-9.9-3.5-1.1-3.5-.9-.2-13.2 12.5-46.9 10.4-70.8-6.2-70.2-5 .2-12.8 3-19.6 7-6.4 3.7-15.1 9.8-17.4 12-1.8 1.7-2.7.4-3.4-5.3-.6-4.8-2.3-13.4-3.1-15.5-.3-.8-.7-2.6-1-4-.2-1.4-.9-4.5-1.6-7-.7-2.5-1.2-4.6-1.2-4.7.1-.2-1.3-4-2.9-8.5-6.2-17-13.9-29.2-20.9-32.9-3.6-1.8-8.9-2.6-13.6-1.9zM825.3 637.4c8.4 5.2 15.7 9.8 16.2 10.3 1.9 1.6 42.9 25.9 54 32 27.7 15.3 55.4 27.4 78.3 34.3 12.5 3.7 31.2 8 35.1 8 1.7 0 2 .8 2.3 6.6.1 3.6-.1 6.8-.5 7.1-.5.3-70.6.5-155.8.5H700v186.6c0 102.6-.2 186.3-.4 186.1-.2-.2-.7-3.6-1.1-7.4-.4-3.9-.8-8.4-1.1-10-.2-1.7-.6-5-.9-7.5-.3-2.5-.7-5.6-1-7-.3-1.4-.7-4.5-1-7-.3-2.5-1-7-1.5-10s-1.2-7.3-1.5-9.5c-1.1-7.5-4.6-24-7.6-36-9.2-36.7-23.2-65.9-54.4-114-10.1-15.6-21.5-34.7-27.5-46.2-2.9-5.4-5.6-10.5-6-11.3-.9-1.6-6.5-14-7.9-17.5-3.8-9.5-6-22-5.6-31.9.6-17.6 6.7-30.9 20.5-44.4l6.5-6.4 6 .6c3.3.3 7.1.8 8.5 1.1 3.3.7 23.7.7 27.5 0 13.1-2.3 22.8-6.4 28.7-11.9 2-1.9 4.9-5.6 6.4-8.3 1.6-2.6 3.2-5.3 3.6-5.8.4-.6 3-4.1 5.8-7.9 16.6-22.4 47.1-47.2 81-66 8.9-4.9 31.6-16.5 32.3-16.6.5 0 7.7 4.2 16 9.4zM2158 634c5.3 2.6 13.5 7.1 18.4 9.9 4.9 2.8 9.1 5.1 9.3 5.1 1.6 0 34.5 22.7 39.9 27.5.6.5 4 3.5 7.4 6.5 7.6 6.6 17.2 16.5 23.3 24 4.7 5.8 13.7 19.3 13.7 20.5 0 1.7 8.9 8.7 14.5 11.4 5.7 2.8 10.1 4.1 19 5.6 4.2.7 23.6.8 27.1.1 1.2-.2 4.5-.7 7.5-1.1 3-.4 5.7-.9 6-1.1 1-.6 14.7 13.3 17.6 17.9 11.6 18.3 13.5 32.4 7.7 57.6-1.9 8.6-13.9 33-27.3 55.4-4.2 7.1-8.2 13.8-8.9 15-1.6 2.7-2.9 4.7-11.6 18.4-25.2 39.2-35.5 59.5-45.3 89.3-3.8 11.4-9.8 36.5-11.8 49-1.2 7.3-1.6 9.7-2.5 15-.5 3-1.2 7.3-1.5 9.5-.3 2.2-.7 5.3-1 7-1.5 9.8-4.1 32.3-5 43.5-.4 4.1-.8 8.5-1 9.8-.2 1.3-.7 6.9-1 12.5-.4 5.6-.9 11.8-1.1 13.7-.1 1.9-.6 12.5-1 23.5s-.8 20.2-1 20.4c-.5.6-.5 14.5-.7-239.9l-.2-223.5-152.5-.2c-83.9-.1-154-.2-155.7-.3h-3.3v-6.5c0-6.1.2-6.5 2.3-6.6 1.2 0 3.3-.2 4.7-.5 10.2-1.6 16.3-2.8 21.5-4.1 3.3-.8 6.9-1.7 8.1-1.9 4.4-.8 28.4-9.3 39.4-13.9 25.5-10.7 73.8-37 96.7-52.6 2.3-1.6 4.4-2.9 4.8-2.9.3 0 1.8-.8 3.3-1.9 1.5-1 5.2-3.4 8.2-5.3 3-1.9 8.4-5.3 12-7.6 7.5-4.8 6.7-4.9 20 1.8zm91.7 570.2c.1 3 .1 3.1-.6.8-.7-2.1-.5-4 .2-4 .2 0 .3 1.5.4 3.2zm-.4 32.3c-.3.9-.8 1.4-1 1.1-.3-.3-.2-.9.2-1.5.9-1.6 1.5-1.3.8.4zm.4 7.2c.1 2.4 0 2.5-.6.8-.7-1.7-.6-3.5.2-3.5.2 0 .3 1.2.4 2.7zm.3 12c.4 17.8 2.7 47.5 4.5 59.3.3 1.9.7 5.1.9 7 .4 3.1 2.9 18.2 4 23.5.2 1.1.9 3.8 1.5 6 .5 2.2 1.3 5.4 1.5 7.1.3 1.7 1.3 4.9 2.2 7 .9 2.1 1.6 3.9 1.4 3.9-.2 0 1.7 5.2 3.7 10 3.9 9.1 10.2 17.3 15.6 20.1 2.3 1.2 12.6 1.4 65.3 1.4 59.3 0 62.5.1 62 1.7-.5 1.6-9.2 36.6-10.1 40.3-2.7 12.3-4.9 21.4-6.1 25.5-4.9 17.1-17 70.4-19 83.5-.3 1.9-.7 4.3-1 5.2-.7 2.2-1.3 5.4-1.9 10.3-.3 2.2-.8 4.7-1 5.5-.2.8-.7 3.1-1 5-.3 1.9-1 6-1.5 9-.9 5.4-1.6 9.5-2.5 15.5-.2 1.6-.6 4.1-.9 5.5-.3 1.4-.7 4.3-1.1 6.5-1.6 10.6-2.7 18.3-3.1 21.5-.2 1.9-.6 4.6-.9 6-.2 1.4-.7 4.7-1 7.5-.3 2.7-.8 6.3-1 8-.7 4.8-1.8 13.5-3 24-.3 2.7-1 8.4-1.5 12.5s-1.2 10.4-1.5 14c-.3 3.6-.7 8.1-1 10-.7 5.7-1.4 14.1-2 21.5-.3 3.8-.7 9.2-1 12-.3 2.7-.7 9-1 14-.3 4.9-.8 11.2-1 14-.4 4.6-1.1 16.7-2 35.5-2.5 50.9-2.5 147.3 0 183.5.2 3.3.7 11.2 1 17.5.3 6.3.7 14 .9 17 .3 3 .7 10.2 1.1 16 .4 5.8.8 12.1 1 14 .2 1.9.6 7.1 1 11.5.3 4.4.8 9.1 1 10.5.2 1.4.7 6.3 1 11 .4 4.7.8 9.8.9 11.5.8 7.8 1.8 16.2 2.1 18.5.2 1.4.6 5.4 1 9 .4 3.6.8 7.8 1 9.5.3 1.6.7 5.5 1 8.5.3 3 .8 6.6 1 8 .3 1.4.7 4.3 1 6.5.2 2.2.7 5.6 1 7.5.2 1.9.7 5.7 1.1 8.5 1 8.5 1.3 10.9 1.8 13.1.2 1.2.7 4.5 1.1 7.5.3 3 .8 6.5 1 7.9.5 2.9 1.1 6.8 2 12.5.3 2.2.9 6.5 1.4 9.5.5 3 .8 5.6.7 5.6 0 .1-10.7 4.5-23.7 9.9-22.7 9.3-27.7 12-37.5 20.5-9 7.8-16.6 20.5-18.9 31.8-.8 3.7-1.6 15.2-1.9 25.7-.2 10.4-.7 20.1-1 21.5-.3 1.3-.8 4.2-1.2 6.5-1.1 7.8-3.6 17.4-7.9 30.5-2.3 7-8.7 19.4-15 29.1-4.3 6.6-5.6 8.3-14 17.8-5.7 6.5-5.4 6.2-12.4 12.5-24.4 21.6-54.9 38-98.1 52.3-18.3 6.1-20.2 6.5-29.9 6.8-15.2.5-21.8 1.2-35.6 4-3.5.8-14.6 5.3-18.9 7.9-18.3 10.7-23.6 31.4-14.6 57 4 11.4 5.7 20.6 5.9 31.9.2 9.8-1.5 22.5-3.3 24.4-.9.9-28.8 8.4-39.9 10.7-1.2.3-3.3.8-4.7 1.1-1.4.3-3.6.8-4.9 1.1-1.4.3-9.6 2.1-18.3 3.9-8.6 1.9-17.2 3.7-19 4-1.8.4-5.3 1.1-7.8 1.6-2.5.6-5.8 1.2-7.3 1.4-1.6.2-4 .6-5.5 1-1.5.3-3.8.7-5.2 1-1.4.3-3.6.7-5 1-1.4.2-4.5.7-7 1-2.5.3-5.2.8-6 1-1.4.4-4.5 1-10.7 1.9-1.6.3-7.1 1.1-12.3 2-5.2.8-11.3 1.8-13.5 2.1-11.5 1.7-25.5 3.6-29.5 4-2.5.3-6.3.8-8.5 1.1-5.5.8-7 1-14.5 1.8-3.6.4-8.1.9-10 1.1-1.9.3-5.7.7-8.5 1-2.7.3-7.2.8-10 1.1-2.7.3-6.6.7-8.5.9-10.4.9-19.7 1.8-21.3 2.1-.9.1-6.1.6-11.5.9-5.3.4-11.3.8-13.2 1-1.9.2-7.3.6-12 1-4.7.3-10.7.8-13.5 1-2.7.2-10.4.7-17 1-6.6.3-14.2.8-17 1-2.7.2-12 .7-20.5 1.1-8.5.3-18.2.8-21.5.9-54.4 2.7-269.5 2.7-323 0-3.8-.2-14.2-.6-23-1-8.8-.3-18.5-.8-21.5-1-3-.2-10.4-.7-16.5-1-25.1-1.5-37.6-2.4-42.5-3-1.9-.2-7.1-.7-11.5-1-4.4-.3-9.6-.7-11.5-1-1.9-.2-7.1-.7-11.5-1-4.4-.3-9.1-.8-10.5-1-1.4-.2-5.4-.6-9-.9-3.6-.4-8.1-.8-10-1.1-1.9-.2-6-.7-9-1-3-.3-6.6-.8-8-1-1.4-.2-5.2-.6-8.5-1-3.3-.3-9.1-1.1-13-1.6-3.8-.5-8.8-1.2-11-1.4-2.2-.3-4.9-.7-6.1-.9-1.2-.2-4.5-.7-7.5-1.1-3-.3-7.6-1-10.4-1.5-2.7-.5-7-1.1-9.5-1.5-2.5-.3-7-.9-10-1.5-3-.5-7.1-1.2-9-1.5-11.9-1.9-19.9-3.3-33-5.9-4.1-.8-8.8-1.7-10.5-2-5.3-.8-17.5-3.4-34-7.1-8.8-2-17-3.8-18.3-4.1-10.5-2.1-38.9-9.8-39.8-10.7-1.8-1.8-3.2-12.1-3.2-23.3-.1-11.3 1.9-21.7 6.7-36.1 6.4-18.9 3.7-36.2-7.5-47.5-11.4-11.6-31.4-17.5-62.4-18.3-8.7-.2-12.5-1.1-31.5-7.2-14.7-4.7-28.3-10.2-44-17.7-55.4-26.6-87.6-63-99.9-113.1-.8-3.3-1.7-8.3-2.1-11-.3-2.8-.8-5.9-1.1-7-.7-3.1-1.3-14.8-1.4-29.1-.3-22.2-5.2-34.7-18.6-47.5-10.7-10.1-14.6-12.4-38.4-22.1-1.4-.6-3.8-1.6-5.5-2.3-1.6-.7-6.7-2.8-11.2-4.6l-8.2-3.3.5-3.5c.3-2 .9-6.1 1.4-9.1.6-3 1.3-7.5 1.6-10 .3-2.5.7-5.6 1-7 .7-4.5 3.3-22.3 4.9-34.5 2.9-21.9 3.5-26.3 4-32 .4-3.7 1-9.3 2-17.5.3-1.9.7-6 .9-9 .3-3 .7-7.3 1-9.5.3-2.2.7-7.2 1.1-11 .3-3.9.7-8.8 1-11 .2-2.2.7-7.2 1-11 .3-3.9.8-9.3 1-12 .9-9.7 2.2-29.7 3.1-47 .3-6.6.7-14.9.9-18.5 3.1-58.7 2.2-159.4-2-216.7-.2-2.6-.6-9.3-1-14.8-.3-5.5-.8-11.8-1-14-.2-2.2-.6-6.7-.9-10-.3-3.3-1-11.4-1.6-18-.6-6.6-1.3-13.6-1.6-15.6-.2-2-.6-5.6-.9-8-.2-2.4-.7-6.7-1-9.4-.3-2.8-.7-6.8-1-9-.2-2.2-1.1-9.6-2-16.5-.9-6.9-1.8-14.1-2.1-16-.3-3.1-1.2-8.7-1.9-13-.3-1.8-1.2-8.8-2-15-.3-2.5-1-6.5-1.5-9s-1.1-6.3-1.4-8.5c-.3-2.2-.8-5.1-1-6.5-.3-1.4-.8-4.1-1-6-.3-1.9-.7-4.6-1-6-.5-2.7-3.5-19.5-4.3-24.5-1.9-11.6-8.1-40.6-12.8-59.5-3-12.4-5.7-23.4-6-24.5-.2-1.1-1.1-4.9-2-8.5l-2-8c-3.7-15.6-13.2-54.5-14.1-57.3-.5-1.6 2.9-1.7 62.1-1.7 52.4 0 63.1-.2 65.4-1.4 3.9-2.1 9.5-8.6 12.8-14.8 4.8-9.4 11.9-31.8 13.8-43.8 3.4-21.4 3.3-34 3.5 484 .1 276.4.4 504.3.5 506.4 1.8 21.2 4.3 34.7 9.7 51.6 4.8 15.2 15.4 35.7 24.2 46.8 2 2.5 18.1 18.7 20.6 20.7 15.1 12.3 35.9 23.4 56.7 30.3 18.2 6.1 43.4 11.8 61.3 13.8 3 .3 6.6.7 8 1 1.4.2 6.1.7 10.5 1 4.4.3 9.1.8 10.5 1.1 1.4.3 83.6.7 182.8.8 164.5.3 197.9.6 209.7 1.9 2.2.3 6.7.8 10 1.1 9.9.9 14.7 1.5 20 2.5 2.8.5 6.8 1.2 9 1.5 2.2.3 9 1.7 15 3.1 6.1 1.4 11.8 2.7 12.7 2.9 3.9.9 28.7 9.4 33.3 11.5 18.7 8.5 38.9 20.2 47.2 27.5.6.5 2.6 2.1 4.5 3.5 1.8 1.3 8.9 7.9 15.7 14.7 11.6 11.5 14.1 13.5 14.1 11.5 0-2.4 23.9-24.6 35-32.6 3.6-2.5 7-5 7.5-5.4 1.6-1.2 12.4-7.6 18.8-11.1 20.5-11 52.8-21.6 78.6-25.7 1.8-.3 4.1-.7 5-.9.9-.2 4.4-.7 7.6-1.1 3.3-.4 6.2-.9 6.5-.9.3-.1 4.1-.5 8.5-.9s9.1-.9 10.5-1.2c8-1.3 48.7-1.6 210-1.9 98.7-.2 181.1-.5 183-.8 1.9-.3 7.1-.8 11.5-1.2 16.9-1.3 39.3-5 56-9.1 53-13.1 88.5-36.8 110.7-73.9 8.3-13.9 15-32.2 19.2-52.6 1.5-7.5 1.9-10.4 3.5-24.9.5-4.1.8-250.8.7-548.3 0-297.4.2-540.7.5-540.7.4 0 .7 3.9.9 8.7z"/></svg>