<svg width="19" height="13" viewBox="0 0 19 13" fill="none" xmlns="http://www.w3.org/2000/svg">
<path d="M1.28006 2.56C0.573134 2.56 5.88894e-05 1.98692 5.88894e-05 1.28C5.88894e-05 0.573075 0.573134 0 1.28006 0C1.98698 0 2.56006 0.573075 2.56006 1.28C2.56006 1.98692 1.98698 2.56 1.28006 2.56Z" fill="#D7FF36"/>
<path d="M4.07998 0.47998H18.98V2.05998H4.07998V0.47998Z" fill="#D7FF36"/>
<path d="M1.28006 7.76001C0.573134 7.76001 5.88894e-05 7.18694 5.88894e-05 6.48001C5.88894e-05 5.77309 0.573134 5.20001 1.28006 5.20001C1.98698 5.20001 2.56006 5.77309 2.56006 6.48001C2.56006 7.18694 1.98698 7.76001 1.28006 7.76001Z" fill="#D7FF36"/>
<path d="M4.07998 5.68005H18.98V7.26005H4.07998V5.68005Z" fill="#D7FF36"/>
<path d="M1.28006 12.96C0.573134 12.96 5.88894e-05 12.387 5.88894e-05 11.68C5.88894e-05 10.9731 0.573134 10.4 1.28006 10.4C1.98698 10.4 2.56006 10.9731 2.56006 11.68C2.56006 12.387 1.98698 12.96 1.28006 12.96Z" fill="#D7FF36"/>
<path d="M4.07998 10.8801H18.98V12.4601H4.07998V10.8801Z" fill="#D7FF36"/>
</svg>
