<?xml version="1.0" standalone="no"?>
<!DOCTYPE svg PUBLIC "-//W3C//DTD SVG 20010904//EN"
 "http://www.w3.org/TR/2001/REC-SVG-20010904/DTD/svg10.dtd">
<svg version="1.0" xmlns="http://www.w3.org/2000/svg"
 width="2955.000000pt" height="2955.000000pt" viewBox="0 0 2955.000000 2955.000000"
 preserveAspectRatio="xMidYMid meet">
<metadata>
Created by potrace 1.11, written by Peter Selinger 2001-2013
</metadata>
<g transform="translate(0.000000,2955.000000) scale(0.100000,-0.100000)"
fill="#000000" stroke="none">
<path d="M14704 29150 c-156 -22 -283 -271 -365 -715 -10 -51 -15 -79 -18 -93
-1 -2 -13 6 -28 18 -138 106 -265 171 -344 178 -70 5 -110 -14 -134 -64 -18
-39 -33 -127 -29 -172 1 -15 5 -54 8 -87 10 -111 49 -303 88 -422 20 -64 18
-83 -9 -83 -32 0 -144 -64 -178 -101 -63 -70 -70 -179 -18 -308 l26 -64 -54
-46 c-206 -178 -278 -314 -233 -444 17 -48 40 -76 107 -130 49 -40 194 -112
284 -141 l51 -17 -18 -42 c-31 -70 -70 -217 -70 -263 0 -151 122 -149 378 8
61 37 300 204 312 217 11 13 89 71 95 71 6 0 4 -24 -11 -130 -6 -40 -39 -233
-58 -332 -69 -362 -180 -665 -288 -783 -57 -63 -105 -88 -173 -90 -210 -8
-379 167 -515 535 -18 47 -34 94 -36 105 -2 11 -13 49 -24 85 -21 69 -22 66
31 95 15 8 45 35 67 60 229 260 38 666 -305 650 -110 -5 -199 -46 -273 -124
-39 -42 -86 -131 -96 -182 -10 -53 -7 -156 6 -178 6 -12 8 -21 5 -21 -4 0 8
-27 26 -61 39 -72 104 -139 159 -164 l41 -18 -6 -66 c-6 -73 -14 -142 -20
-181 -2 -14 -7 -45 -10 -70 -28 -207 -94 -404 -158 -474 -29 -31 -84 -55 -112
-49 -11 2 -44 6 -73 8 -143 13 -211 98 -277 350 -23 90 -31 135 -49 270 -3 22
-8 58 -10 80 -3 22 -8 69 -10 105 -3 36 -8 104 -11 152 l-7 86 34 -7 c49 -11
138 -4 194 15 93 31 181 110 224 200 30 61 34 80 34 179 0 81 -3 97 -31 155
-69 143 -214 232 -366 225 l-43 -2 25 61 c21 51 26 76 25 151 0 79 -4 98 -30
155 -161 345 -653 293 -737 -77 -22 -93 -8 -187 39 -272 13 -24 23 -45 22 -47
-2 -1 -23 -5 -48 -9 -143 -19 -280 -150 -315 -300 -20 -87 3 -244 41 -276 8
-6 14 -17 14 -23 0 -24 96 -108 160 -139 57 -28 75 -32 160 -34 l95 -2 -1 -63
c-2 -87 -14 -345 -19 -388 -2 -19 -6 -71 -10 -115 -3 -44 -8 -87 -10 -95 -2
-8 -6 -37 -10 -65 -16 -135 -53 -275 -92 -345 -36 -64 -112 -95 -147 -60 -4 4
-20 5 -35 1 -123 -35 -218 94 -255 344 -4 23 -8 51 -11 63 -2 12 -7 59 -10
105 -4 45 -8 92 -10 104 -3 16 5 28 30 43 18 11 51 40 73 64 141 153 137 386
-8 537 -187 195 -517 139 -632 -108 -77 -163 -26 -368 116 -473 l47 -35 -6
-150 c-7 -183 -11 -230 -30 -354 -70 -462 -243 -585 -543 -386 -40 26 -60 62
-102 180 -21 57 -67 239 -74 294 -3 14 -9 48 -14 74 -11 56 -15 53 101 81 183
45 288 141 316 290 19 105 -1 279 -51 434 l-20 63 103 103 c57 56 121 128 143
159 186 274 74 478 -342 623 l-82 29 5 34 c7 43 7 214 0 266 -13 101 -67 191
-128 214 -36 14 -112 14 -157 0 -19 -5 -42 -12 -50 -14 -8 -2 -22 -6 -30 -9
-11 -5 -25 15 -55 76 -175 363 -354 506 -533 423 -62 -29 -165 -129 -213 -207
-5 -8 -43 4 -118 36 -354 151 -546 176 -594 78 -39 -79 49 -285 176 -415 290
-297 459 -606 571 -1050 22 -87 23 -100 11 -146 -17 -66 -17 -189 1 -249 31
-101 104 -210 190 -282 86 -72 222 -318 345 -620 58 -143 139 -384 130 -388
-12 -4 -301 93 -421 142 -170 70 -402 186 -566 282 -157 92 -347 214 -352 226
-2 5 -8 8 -13 8 -6 0 -27 13 -47 28 -163 126 -262 191 -382 251 -36 18 -76 39
-90 46 -43 22 -212 73 -295 90 -48 10 -130 17 -205 17 -278 1 -521 -91 -785
-296 -70 -55 -128 -96 -184 -131 -9 -5 -70 -43 -136 -84 -66 -41 -131 -81
-145 -90 -14 -8 -38 -23 -55 -32 -16 -9 -82 -45 -145 -81 -170 -96 -248 -138
-502 -266 -257 -129 -319 -175 -362 -267 -58 -122 -55 -246 12 -450 14 -44 27
-82 27 -85 1 -3 9 -23 18 -44 52 -119 73 -164 90 -196 l19 -34 -38 -33 c-63
-53 -392 -273 -408 -273 -2 0 -43 -23 -92 -51 -74 -43 -398 -210 -414 -214
-23 -6 -273 -128 -330 -161 -152 -89 -328 -238 -468 -397 -59 -68 -177 -251
-229 -358 -75 -152 -141 -360 -158 -494 -4 -27 -10 -77 -15 -110 -8 -65 -5
-322 5 -395 47 -346 179 -683 386 -985 48 -70 351 -574 379 -630 8 -16 18 -32
21 -35 3 -3 12 -18 21 -35 8 -16 25 -48 38 -70 12 -22 36 -65 53 -95 38 -70
227 -447 227 -454 0 -3 14 -35 30 -71 17 -36 30 -70 30 -75 0 -6 4 -18 10 -28
17 -30 68 -174 99 -278 55 -189 83 -352 85 -499 l1 -80 -55 1 c-54 1 -261 9
-469 20 l-103 5 -76 -57 c-112 -84 -118 -90 -232 -204 -215 -215 -365 -460
-459 -751 -30 -92 -64 -228 -76 -299 -3 -19 -10 -60 -15 -90 -32 -189 -34
-645 -5 -895 17 -149 22 -182 30 -225 3 -14 7 -45 10 -70 3 -25 7 -56 10 -70
3 -14 8 -41 11 -60 33 -191 123 -588 203 -895 36 -138 98 -392 107 -440 2 -11
15 -76 30 -145 14 -69 28 -136 30 -150 3 -14 9 -47 14 -75 5 -27 12 -66 15
-85 4 -19 17 -100 31 -180 14 -80 27 -163 29 -185 3 -22 7 -51 10 -65 3 -14 7
-45 10 -69 3 -23 7 -55 9 -70 3 -14 8 -55 11 -91 4 -36 9 -73 10 -82 2 -9 6
-45 10 -80 3 -35 8 -82 10 -105 3 -24 7 -62 10 -85 11 -102 20 -222 30 -378 3
-41 7 -104 10 -140 25 -356 25 -1116 0 -1590 -7 -128 -16 -273 -20 -310 -2
-19 -6 -80 -9 -135 -6 -94 -8 -118 -21 -227 -3 -24 -7 -74 -10 -113 -3 -38 -8
-81 -10 -95 -2 -14 -7 -61 -10 -105 -4 -44 -8 -87 -11 -95 -2 -8 -6 -42 -9
-75 -3 -33 -8 -71 -10 -85 -2 -14 -7 -50 -10 -80 -6 -56 -8 -71 -20 -150 -11
-76 -14 -93 -20 -140 -11 -83 -36 -244 -65 -415 -16 -93 -31 -190 -34 -215 -3
-25 -10 -70 -16 -100 -5 -30 -12 -75 -15 -100 -4 -25 -12 -85 -20 -135 -8 -49
-16 -112 -20 -140 -3 -27 -8 -70 -11 -95 -3 -25 -7 -56 -9 -70 -2 -14 -7 -52
-11 -85 -3 -33 -8 -68 -10 -78 -1 -9 -6 -54 -9 -100 -4 -45 -8 -89 -10 -97 -2
-8 -7 -55 -11 -105 -3 -49 -8 -98 -9 -107 -26 -136 -26 -950 0 -1072 2 -12 6
-39 9 -61 4 -35 27 -153 40 -210 13 -58 59 -188 87 -245 70 -145 158 -239 283
-302 61 -31 61 -31 141 -20 44 7 91 14 105 17 14 3 37 7 52 10 15 2 51 8 80
14 29 6 69 13 88 15 19 3 60 10 90 16 30 6 71 13 90 16 19 3 40 7 46 9 7 2 26
-33 44 -83 216 -578 378 -911 604 -1240 39 -58 78 -116 87 -129 62 -93 227
-284 358 -413 182 -180 265 -251 471 -401 l116 -84 -12 -40 c-37 -123 4 -283
109 -425 142 -193 347 -319 942 -580 66 -29 140 -61 165 -72 106 -47 519 -211
690 -273 102 -37 194 -71 205 -76 97 -41 839 -276 1040 -329 17 -5 57 -16 90
-25 449 -124 1195 -294 1544 -351 18 -3 43 -8 55 -10 11 -2 37 -6 56 -10 19
-3 55 -9 80 -14 25 -5 59 -11 75 -14 17 -2 77 -12 135 -21 58 -10 114 -19 125
-20 11 -1 36 -5 55 -8 28 -6 208 -31 445 -62 62 -9 192 -25 240 -30 28 -3 68
-7 90 -10 130 -15 237 -26 290 -30 33 -3 76 -7 95 -10 19 -2 69 -7 110 -10 41
-3 95 -8 120 -10 25 -3 83 -7 130 -10 47 -3 105 -7 130 -10 25 -3 86 -7 135
-10 50 -3 131 -7 180 -10 159 -10 444 -22 730 -30 216 -7 1068 -7 1285 0 247
7 453 14 540 19 41 3 134 8 205 11 72 4 150 8 175 10 25 2 90 6 145 10 55 4
116 8 135 10 19 2 73 6 120 9 47 4 101 9 120 11 19 2 67 7 105 10 39 3 86 7
105 10 19 2 64 7 100 10 36 3 99 10 140 15 41 5 103 12 137 16 68 7 88 9 148
18 22 3 65 8 95 11 30 3 66 7 80 10 31 5 81 12 145 20 28 3 61 8 75 10 14 3
39 7 55 9 17 3 73 12 125 20 52 8 118 18 145 22 28 3 59 8 70 10 11 2 34 6 50
9 17 3 44 7 60 10 132 24 204 37 230 41 17 3 77 14 135 26 136 26 133 25 220
43 41 8 84 17 95 19 11 3 64 14 119 26 54 12 106 23 115 25 52 10 388 89 451
107 80 21 100 26 140 34 14 3 39 9 55 15 17 5 80 22 140 38 175 46 426 119
640 185 6 2 15 5 20 6 36 10 540 182 675 232 166 60 611 234 685 268 22 10 89
39 150 65 120 51 163 70 275 122 41 19 109 51 150 70 151 70 237 117 330 179
125 84 170 125 284 265 21 25 85 159 92 193 14 61 14 164 2 206 l-14 45 56 39
c202 142 358 273 525 441 83 83 159 162 170 175 332 407 521 720 722 1200 71
169 81 194 153 386 l42 111 46 -9 c26 -5 61 -11 77 -14 17 -3 93 -16 170 -29
77 -14 154 -27 170 -30 17 -3 41 -7 55 -10 90 -18 126 -17 175 6 112 51 220
160 282 283 26 51 72 168 78 196 2 8 10 40 19 70 8 30 17 67 20 83 3 15 10 53
15 85 11 59 15 95 28 222 10 101 10 647 -1 790 -4 63 -9 133 -11 155 -8 118
-17 222 -20 235 -2 8 -7 51 -11 95 -3 44 -8 88 -9 97 -2 9 -7 48 -10 85 -4 37
-9 76 -11 87 -2 10 -6 44 -10 75 -3 31 -8 63 -9 71 -2 9 -6 43 -10 75 -4 33
-9 67 -11 77 -1 9 -5 38 -9 65 -7 53 -40 264 -55 358 -6 33 -12 74 -15 90 -3
17 -16 98 -29 180 -14 83 -27 166 -30 185 -8 58 -18 134 -21 150 -6 33 -15 98
-20 145 -3 28 -8 61 -10 75 -2 14 -7 48 -10 75 -3 28 -10 86 -15 130 -5 44
-12 107 -15 140 -3 33 -8 76 -10 95 -8 65 -14 125 -20 190 -3 36 -7 88 -10
115 -2 28 -7 84 -10 125 -3 41 -8 95 -10 120 -3 39 -10 142 -20 325 -25 456
-25 1104 0 1575 7 132 17 287 20 310 2 14 6 63 10 110 3 47 8 101 10 120 3 19
7 60 10 90 3 30 8 75 10 100 19 167 31 256 56 430 11 74 22 151 25 170 3 19 7
42 9 50 2 8 7 38 11 65 3 28 8 53 10 56 1 3 6 26 9 50 3 25 26 142 51 260 24
118 46 225 48 239 2 14 14 63 26 110 12 47 24 94 26 105 2 12 37 153 78 315
83 329 158 668 180 815 2 11 6 38 9 60 4 22 9 57 12 78 3 20 7 53 10 72 11 76
14 103 20 170 4 39 10 104 15 145 8 82 5 561 -5 625 -3 22 -10 72 -15 110 -12
83 -16 106 -36 194 -9 36 -18 76 -20 88 -2 12 -20 71 -40 130 -59 179 -141
334 -289 551 -67 98 -306 326 -431 413 -41 28 -45 28 -140 24 -284 -12 -444
-18 -484 -19 l-45 -1 1 65 c1 136 16 247 55 405 20 82 82 277 104 330 7 17 23
55 35 85 12 30 33 79 46 108 13 29 24 55 24 57 0 8 160 328 215 430 64 119
273 483 296 517 11 14 19 31 19 37 0 6 5 11 10 11 6 0 10 4 10 9 0 12 91 163
185 306 194 294 298 541 359 845 23 118 28 165 30 318 8 484 -169 932 -499
1266 -194 197 -347 300 -640 431 -90 40 -358 176 -466 235 -189 105 -446 272
-522 340 l-28 26 40 80 c35 73 59 128 97 224 80 206 89 384 24 513 -44 88
-100 129 -363 261 -133 68 -273 140 -312 161 -392 213 -691 396 -850 520 -520
407 -1054 400 -1639 -20 -428 -307 -759 -495 -1131 -643 -168 -66 -453 -157
-463 -148 -5 6 74 242 123 366 120 305 266 570 365 663 78 74 135 151 167 228
28 66 30 98 21 354 -3 58 1 78 42 211 17 54 32 106 34 114 20 72 140 335 188
410 12 19 28 46 35 58 32 59 189 255 268 336 91 92 145 178 180 284 34 106 20
169 -45 194 -82 32 -284 -17 -560 -137 l-85 -36 -23 28 c-85 103 -130 146
-180 175 -48 28 -67 33 -122 33 -85 0 -127 -21 -210 -104 -78 -78 -138 -166
-210 -311 -29 -58 -54 -106 -55 -107 0 -1 -30 7 -65 18 -130 41 -216 19 -266
-67 -42 -71 -54 -141 -51 -301 l2 -143 -65 -21 c-149 -48 -277 -118 -354 -193
-120 -116 -113 -283 19 -456 44 -58 155 -173 201 -209 l26 -21 -31 -112 c-35
-128 -46 -201 -44 -306 3 -212 102 -326 332 -381 85 -21 104 -28 97 -39 -2 -4
-7 -28 -11 -52 -15 -103 -46 -234 -85 -353 -47 -145 -67 -171 -172 -224 -151
-77 -257 -65 -336 35 -55 69 -98 179 -121 309 -6 32 -13 67 -15 78 -2 11 -7
49 -10 85 -4 36 -9 81 -11 100 -3 19 -7 101 -10 182 l-4 148 27 14 c30 16 77
64 111 113 68 99 79 267 25 378 -39 81 -108 148 -191 188 -62 29 -77 32 -163
32 -86 0 -101 -3 -162 -32 -85 -40 -151 -106 -191 -191 -29 -61 -32 -76 -32
-163 0 -81 4 -104 25 -150 14 -30 28 -55 33 -57 4 -2 7 -9 7 -16 0 -14 70 -81
112 -108 28 -19 27 -7 13 -163 -22 -235 -73 -402 -143 -462 -35 -30 -85 -44
-120 -33 -19 5 -40 3 -60 -6 -41 -17 -37 -17 -72 1 -17 9 -41 32 -55 53 -22
33 -59 132 -69 186 -2 12 -9 41 -15 66 -10 48 -17 97 -36 275 -11 109 -25 344
-28 485 -1 59 1 74 12 72 34 -7 132 -3 172 8 186 50 309 222 293 411 -13 158
-126 297 -280 344 -27 8 -59 15 -71 15 -29 0 -28 2 2 53 27 47 52 144 50 197
-7 205 -167 370 -370 382 -286 16 -492 -279 -381 -544 9 -21 16 -41 16 -44 0
-3 -29 -7 -65 -9 -181 -9 -327 -134 -366 -314 -32 -152 44 -326 181 -410 27
-17 50 -28 50 -26 0 3 14 -2 31 -11 23 -11 60 -16 126 -17 l94 0 -6 -96 c-3
-53 -8 -114 -10 -136 -30 -274 -29 -268 -46 -355 -22 -109 -51 -206 -85 -275
-38 -79 -54 -100 -104 -135 -38 -27 -51 -31 -95 -31 -16 -1 -49 -7 -73 -16
-36 -12 -45 -13 -59 -1 -14 10 -15 10 -9 0 13 -21 -34 8 -57 36 -10 12 -24 19
-30 15 -7 -3 -9 -3 -5 1 4 5 -9 37 -28 73 -19 36 -32 69 -28 74 3 5 1 9 -4 9
-17 0 -64 211 -76 345 -26 266 -26 287 -1 300 242 128 293 436 102 628 -89 90
-223 131 -350 106 -153 -29 -279 -157 -308 -313 -29 -158 44 -322 178 -401 38
-22 39 -13 -22 -201 -99 -304 -217 -488 -362 -566 -88 -48 -199 -56 -270 -20
-134 69 -256 333 -347 752 -24 108 -59 296 -71 385 -4 22 -8 51 -11 65 -2 14
-6 48 -10 75 -5 49 -5 50 13 29 10 -11 23 -23 28 -25 6 -2 53 -36 105 -75 283
-212 484 -317 574 -300 53 10 70 44 63 130 -6 67 -43 200 -73 257 l-13 27 91
33 c108 39 219 97 269 142 167 150 119 327 -153 562 l-47 40 25 70 c48 137 41
235 -22 304 -33 37 -105 79 -169 99 -35 11 -35 9 -2 132 125 469 104 708 -62
702 -50 -2 -128 -30 -196 -70 -64 -37 -151 -98 -174 -120 -18 -17 -27 -4 -34
53 -6 48 -23 134 -31 155 -3 8 -7 26 -10 40 -2 14 -9 45 -16 70 -7 25 -12 46
-12 47 1 2 -13 40 -29 85 -62 170 -139 292 -209 329 -36 18 -89 26 -136 19z
m-6451 -5974 c84 -52 157 -98 162 -103 19 -16 429 -259 540 -320 277 -153 554
-274 783 -343 125 -37 312 -80 351 -80 17 0 20 -8 23 -66 1 -36 -1 -68 -5 -71
-5 -3 -706 -5 -1558 -5 l-1549 0 0 -1866 c0 -1026 -2 -1863 -4 -1861 -2 2 -7
36 -11 74 -4 39 -8 84 -11 100 -2 17 -6 50 -9 75 -3 25 -7 56 -10 70 -3 14 -7
45 -10 70 -3 25 -10 70 -15 100 -5 30 -12 73 -15 95 -11 75 -46 240 -76 360
-92 367 -232 659 -544 1140 -101 156 -215 347 -275 462 -29 54 -56 105 -60
113 -9 16 -65 140 -79 175 -38 95 -60 220 -56 319 6 176 67 309 205 444 l65
64 60 -6 c33 -3 71 -8 85 -11 33 -7 237 -7 275 0 131 23 228 64 287 119 20 19
49 56 64 83 16 26 32 53 36 58 4 6 30 41 58 79 166 224 471 472 810 660 89 49
316 165 323 166 5 0 77 -42 160 -94z m13327 34 c53 -26 135 -71 184 -99 49
-28 91 -51 93 -51 16 0 345 -227 399 -275 6 -5 40 -35 74 -65 76 -66 172 -165
233 -240 47 -58 137 -193 137 -205 0 -17 89 -87 145 -114 57 -28 101 -41 190
-56 42 -7 236 -8 271 -1 12 2 45 7 75 11 30 4 57 9 60 11 10 6 147 -133 176
-179 116 -183 135 -324 77 -576 -19 -86 -139 -330 -273 -554 -42 -71 -82 -138
-89 -150 -16 -27 -29 -47 -116 -184 -252 -392 -355 -595 -453 -893 -38 -114
-98 -365 -118 -490 -12 -73 -16 -97 -25 -150 -5 -30 -12 -73 -15 -95 -3 -22
-7 -53 -10 -70 -15 -98 -41 -323 -50 -435 -4 -41 -8 -85 -10 -98 -2 -13 -7
-69 -10 -125 -4 -56 -9 -118 -11 -137 -1 -19 -6 -125 -10 -235 -4 -110 -8
-202 -10 -204 -5 -6 -5 -145 -7 2399 l-2 2235 -1525 2 c-839 1 -1540 2 -1557
3 l-33 0 0 65 c0 61 2 65 23 66 12 0 33 2 47 5 102 16 163 28 215 41 33 8 69
17 81 19 44 8 284 93 394 139 255 107 738 370 967 526 23 16 44 29 48 29 3 0
18 8 33 19 15 10 52 34 82 53 30 19 84 53 120 76 75 48 67 49 200 -18z m917
-5702 c1 -30 1 -31 -6 -8 -7 21 -5 40 2 40 2 0 3 -15 4 -32z m-4 -323 c-3 -9
-8 -14 -10 -11 -3 3 -2 9 2 15 9 16 15 13 8 -4z m4 -72 c1 -24 0 -25 -6 -8 -7
17 -6 35 2 35 2 0 3 -12 4 -27z m3 -120 c4 -178 27 -475 45 -593 3 -19 7 -51
9 -70 4 -31 29 -182 40 -235 2 -11 9 -38 15 -60 5 -22 13 -54 15 -71 3 -17 13
-49 22 -70 9 -21 16 -39 14 -39 -2 0 17 -52 37 -100 39 -91 102 -173 156 -201
23 -12 126 -14 653 -14 593 0 625 -1 620 -17 -5 -16 -92 -366 -101 -403 -27
-123 -49 -214 -61 -255 -49 -171 -170 -704 -190 -835 -3 -19 -7 -43 -10 -52
-7 -22 -13 -54 -19 -103 -3 -22 -8 -47 -10 -55 -2 -8 -7 -31 -10 -50 -3 -19
-10 -60 -15 -90 -9 -54 -16 -95 -25 -155 -2 -16 -6 -41 -9 -55 -3 -14 -7 -43
-11 -65 -16 -106 -27 -183 -31 -215 -2 -19 -6 -46 -9 -60 -2 -14 -7 -47 -10
-75 -3 -27 -8 -63 -10 -80 -7 -48 -18 -135 -30 -240 -3 -27 -10 -84 -15 -125
-5 -41 -12 -104 -15 -140 -3 -36 -7 -81 -10 -100 -7 -57 -14 -141 -20 -215 -3
-38 -7 -92 -10 -120 -3 -27 -7 -90 -10 -140 -3 -49 -8 -112 -10 -140 -4 -46
-11 -167 -20 -355 -25 -509 -25 -1473 0 -1835 2 -33 7 -112 10 -175 3 -63 7
-140 9 -170 3 -30 7 -102 11 -160 4 -58 8 -121 10 -140 2 -19 6 -71 10 -115 3
-44 8 -91 10 -105 2 -14 7 -63 10 -110 4 -47 8 -98 9 -115 8 -78 18 -162 21
-185 2 -14 6 -54 10 -90 4 -36 8 -78 10 -95 3 -16 7 -55 10 -85 3 -30 8 -66
10 -80 3 -14 7 -43 10 -65 2 -22 7 -56 10 -75 2 -19 7 -57 11 -85 10 -85 13
-109 18 -131 2 -12 7 -45 11 -75 3 -30 8 -65 10 -79 5 -29 11 -68 20 -125 3
-22 9 -65 14 -95 5 -30 8 -56 7 -56 0 -1 -107 -45 -237 -99 -227 -93 -277
-120 -375 -205 -90 -78 -166 -205 -189 -318 -8 -37 -16 -152 -19 -257 -2 -104
-7 -201 -10 -215 -3 -13 -8 -42 -12 -65 -11 -78 -36 -174 -79 -305 -23 -70
-87 -194 -150 -291 -43 -66 -56 -83 -140 -178 -57 -65 -54 -62 -124 -125 -244
-216 -549 -380 -981 -523 -183 -61 -202 -65 -299 -68 -152 -5 -218 -12 -356
-40 -35 -8 -146 -53 -189 -79 -183 -107 -236 -314 -146 -570 40 -114 57 -206
59 -319 2 -98 -15 -225 -33 -244 -9 -9 -288 -84 -399 -107 -12 -3 -33 -8 -47
-11 -14 -3 -36 -8 -49 -11 -14 -3 -96 -21 -183 -39 -86 -19 -172 -37 -190 -40
-18 -4 -53 -11 -78 -16 -25 -6 -58 -12 -73 -14 -16 -2 -40 -6 -55 -10 -15 -3
-38 -7 -52 -10 -14 -3 -36 -7 -50 -10 -14 -2 -45 -7 -70 -10 -25 -3 -52 -8
-60 -10 -14 -4 -45 -10 -107 -19 -16 -3 -71 -11 -123 -20 -52 -8 -113 -18
-135 -21 -115 -17 -255 -36 -295 -40 -25 -3 -63 -8 -85 -11 -55 -8 -70 -10
-145 -18 -36 -4 -81 -9 -100 -11 -19 -3 -57 -7 -85 -10 -27 -3 -72 -8 -100
-11 -27 -3 -66 -7 -85 -9 -104 -9 -197 -18 -213 -21 -9 -1 -61 -6 -115 -9 -53
-4 -113 -8 -132 -10 -19 -2 -73 -6 -120 -10 -47 -3 -107 -8 -135 -10 -27 -2
-104 -7 -170 -10 -66 -3 -142 -8 -170 -10 -27 -2 -120 -7 -205 -11 -85 -3
-182 -8 -215 -9 -544 -27 -2695 -27 -3230 0 -38 2 -142 6 -230 10 -88 3 -185
8 -215 10 -30 2 -104 7 -165 10 -251 15 -376 24 -425 30 -19 2 -71 7 -115 10
-44 3 -96 7 -115 10 -19 2 -71 7 -115 10 -44 3 -91 8 -105 10 -14 2 -54 6 -90
9 -36 4 -81 8 -100 11 -19 2 -60 7 -90 10 -30 3 -66 8 -80 10 -14 2 -52 6 -85
10 -33 3 -91 11 -130 16 -38 5 -88 12 -110 14 -22 3 -49 7 -61 9 -12 2 -45 7
-75 11 -30 3 -76 10 -104 15 -27 5 -70 11 -95 15 -25 3 -70 9 -100 15 -30 5
-71 12 -90 15 -119 19 -199 33 -330 59 -41 8 -88 17 -105 20 -53 8 -175 34
-340 71 -88 20 -170 38 -183 41 -105 21 -389 98 -398 107 -18 18 -32 121 -32
233 -1 113 19 217 67 361 64 189 37 362 -75 475 -114 116 -314 175 -624 183
-87 2 -125 11 -315 72 -147 47 -283 102 -440 177 -554 266 -876 630 -999 1131
-8 33 -17 83 -21 110 -3 28 -8 59 -11 70 -7 31 -13 148 -14 291 -3 222 -52
347 -186 475 -107 101 -146 124 -384 221 -14 6 -38 16 -55 23 -16 7 -67 28
-112 46 l-82 33 5 35 c3 20 9 61 14 91 6 30 13 75 16 100 3 25 7 56 10 70 7
45 33 223 49 345 29 219 35 263 40 320 4 37 10 93 20 175 3 19 7 60 9 90 3 30
7 73 10 95 3 22 7 72 11 110 3 39 7 88 10 110 2 22 7 72 10 110 3 39 8 93 10
120 9 97 22 297 31 470 3 66 7 149 9 185 31 587 22 1594 -20 2167 -2 26 -6 93
-10 148 -3 55 -8 118 -10 140 -2 22 -6 67 -9 100 -3 33 -10 114 -16 180 -6 66
-13 136 -16 156 -2 20 -6 56 -9 80 -2 24 -7 67 -10 94 -3 28 -7 68 -10 90 -2
22 -11 96 -20 165 -9 69 -18 141 -21 160 -3 31 -12 87 -19 130 -3 18 -12 88
-20 150 -3 25 -10 65 -15 90 -5 25 -11 63 -14 85 -3 22 -8 51 -10 65 -3 14 -8
41 -10 60 -3 19 -7 46 -10 60 -5 27 -35 195 -43 245 -19 116 -81 406 -128 595
-30 124 -57 234 -60 245 -2 11 -11 49 -20 85 -9 36 -18 72 -20 80 -37 156
-132 545 -141 573 -5 16 29 17 621 17 524 0 631 2 654 14 39 21 95 86 128 148
48 94 119 318 138 438 34 214 33 340 35 -4840 1 -2764 4 -5043 5 -5064 18
-212 43 -347 97 -516 48 -152 154 -357 242 -468 20 -25 181 -187 206 -207 151
-123 359 -234 567 -303 182 -61 434 -118 613 -138 30 -3 66 -7 80 -10 14 -2
61 -7 105 -10 44 -3 91 -8 105 -11 14 -3 836 -7 1828 -8 1645 -3 1979 -6 2097
-19 22 -3 67 -8 100 -11 99 -9 147 -15 200 -25 28 -5 68 -12 90 -15 22 -3 90
-17 150 -31 61 -14 118 -27 127 -29 39 -9 287 -94 333 -115 187 -85 389 -202
472 -275 6 -5 26 -21 45 -35 18 -13 89 -79 157 -147 116 -115 141 -135 141
-115 0 24 239 246 350 326 36 25 70 50 75 54 16 12 124 76 188 111 205 110
528 216 786 257 18 3 41 7 50 9 9 2 44 7 76 11 33 4 62 9 65 9 3 1 41 5 85 9
44 4 91 9 105 12 80 13 487 16 2100 19 987 2 1811 5 1830 8 19 3 71 8 115 12
169 13 393 50 560 91 530 131 885 368 1107 739 83 139 150 322 192 526 15 75
19 104 35 249 5 41 8 2508 7 5483 0 2974 2 5407 5 5407 4 0 7 -39 9 -87z"/>
</g>
</svg>
